<svg width="30" height="32" fill="none" xmlns="http://www.w3.org/2000/svg">
  <g clip-path="url(#a)" clip-rule="evenodd">
    <path d="M19.432 16.544c-.14.767-.993 7.486 3.486 1.872 0 0 2.747-3.011 6.32-2.89 0 0 2.299.367-1.816 4.592-1.589 1.63-5.972 6.62-5.972 6.62s-2.848 4.023-6.176 4.545c-.03.004-2.428.087-2.934.061-.613-.03-5.138-.658-6.695-4.518 0 0-.81-1.944-.92-4.723-.072-1.859-.178-3.275-1.74-6.262L.78 12.466c-.491-.75-1.244-2.317.034-3.18 0 0 1.638-1.163 3.334 1.436l3.41 5.672L4.664 5.32s-.737-1.775 1.23-2.481c0 0 1.871-.865 2.675 1.725l2.717 10.745.699-12.936S11.926.046 14.152.11c0 0 2.155-.126 2.083 2.442l-1.042 12.912 5.07-11.915s.542-1.902 2.586-1.385c0 0 1.76.464.918 2.539 0 0-4.195 11.074-4.335 11.84Z" stroke="#fff" stroke-width=".832" stroke-miterlimit="1.5" stroke-linecap="round" stroke-linejoin="round"/>
    <path fill-rule="evenodd" d="M12.608 22.832v-2.033h.37v2.033h2.032v.37h-2.032v2.032h-.37V23.2h-2.032v-.37h2.032Z" fill="#fff"/>
  </g>
  <defs>
    <clipPath id="a">
      <path fill="#fff" d="M0 0h30v31.552H0z"/>
    </clipPath>
  </defs>
</svg>
