<svg width="30" height="30" fill="none" xmlns="http://www.w3.org/2000/svg">
  <path d="M12.906 5.396c.533-2.195 3.655-2.195 4.188 0A2.154 2.154 0 0 0 20.31 6.73c1.929-1.175 4.138 1.032 2.963 2.962a2.155 2.155 0 0 0 1.33 3.215c2.196.533 2.196 3.655 0 4.188a2.154 2.154 0 0 0-1.332 3.216c1.175 1.929-1.032 4.138-2.962 2.963a2.155 2.155 0 0 0-3.215 1.33c-.533 2.196-3.655 2.196-4.188 0a2.154 2.154 0 0 0-3.216-1.332c-1.929 1.175-4.137-1.032-2.962-2.962a2.154 2.154 0 0 0-1.332-3.215c-2.195-.533-2.195-3.655 0-4.188A2.154 2.154 0 0 0 6.73 9.69C5.554 7.761 7.76 5.553 9.69 6.728c1.245.76 2.87.087 3.215-1.332Z" stroke="#fff" stroke-linecap="round" stroke-linejoin="round"/>
  <path d="M18.75 15a3.75 3.75 0 1 1-7.5 0 3.75 3.75 0 0 1 7.5 0Z" stroke="#fff" stroke-linecap="round" stroke-linejoin="round"/>
</svg>
