<svg width="30" height="31" fill="none" xmlns="http://www.w3.org/2000/svg">
  <path d="M22.477 23.521a9.37 9.37 0 0 0-3.3-2.753A9.323 9.323 0 0 0 15 19.784a9.323 9.323 0 0 0-4.177.984 9.37 9.37 0 0 0-3.3 2.753m14.954 0a11.314 11.314 0 0 0 3.45-5.758 11.357 11.357 0 0 0-.413-6.709 11.296 11.296 0 0 0-4.128-5.287 11.212 11.212 0 0 0-12.773 0 11.297 11.297 0 0 0-4.129 5.288 11.358 11.358 0 0 0-.412 6.708 11.316 11.316 0 0 0 3.45 5.758m14.955 0A11.18 11.18 0 0 1 15 26.379a11.177 11.177 0 0 1-7.477-2.858M18.75 12.247c0 1-.395 1.958-1.098 2.665a3.74 3.74 0 0 1-5.304 0 3.778 3.778 0 0 1 0-5.33 3.74 3.74 0 0 1 5.304 0 3.778 3.778 0 0 1 1.098 2.665Z" stroke="#fff" stroke-width=".75" stroke-linecap="round" stroke-linejoin="round"/>
</svg>
