<svg viewBox="0 0 132 27" xmlns="http://www.w3.org/2000/svg" xml:space="preserve" style="fill-rule:evenodd;clip-rule:evenodd;stroke-linejoin:round;stroke-miterlimit:2">
  <path d="M13.009 11.257v4.97h6.249c-.804 2.412-2.777 4.276-6.249 4.276-4.458 0-6.76-3.618-6.76-7.236s2.302-7.235 6.76-7.235c2.266 0 3.983.95 5.116 2.375l5.189-3.435C21.012 1.903 17.358.039 13.009.039 5.408.039 0 5.703 0 13.267c0 7.601 5.408 13.265 13.009 13.265 3.691 0 6.395-1.352 8.222-3.654l.841 3.179h2.996v-14.8H13.009ZM29.088.477h6.249v25.58h-6.249zM61.281.477 53.79 12.865 46.299.477h-6.578v25.58h6.249V10.855l6.687 11h2.303l6.65-11v15.202h6.285V.477h-6.614Z" style="fill:#fff;fill-rule:nonzero"/>
  <path d="m83.426.477-7.491 12.388L68.444.477h-6.578v25.58h6.249V10.855l6.687 11h2.302l6.651-11v15.202h6.285V.477h-6.614Z" style="fill:#fff;fill-rule:nonzero"/>
  <path d="M119.027 20.174c.454.2 1.514.439 2.189.482.059.004.22.013.277.015 3.462.129 4.258-1.756 4.258-3.642 0-2.376-1.571-3.289-3.471-3.289-1.353 0-2.449.621-3.253 1.169l-4.75-1.096L115.848 0h14.142v5.92h-9.574l-.475 4.239a7.298 7.298 0 0 1 3.91-1.097c5.225 0 8.076 3.362 8.076 8.003 0 4.707-3.57 8.976-9.364 8.99v.002H93.877V.477h15.75v5.92h-9.501v3.947h8.331v5.591h-8.331v4.239h18.901Z" style="fill:url(#a)"/>
  <defs>
    <linearGradient id="a" x1="0" y1="0" x2="1" y2="0" gradientUnits="userSpaceOnUse" gradientTransform="scale(24.06137) rotate(7.297 .242 33.633)">
      <stop offset="0" style="stop-color:#fff;stop-opacity:1"/>
      <stop offset=".5" style="stop-color:#8ad1ae;stop-opacity:1"/>
      <stop offset=".5" style="stop-color:#2dac6d;stop-opacity:1"/>
      <stop offset=".5" style="stop-color:#0d9f56;stop-opacity:1"/>
      <stop offset=".68" style="stop-color:#10cc6e;stop-opacity:1"/>
      <stop offset="1" style="stop-color:#11d472;stop-opacity:1"/>
    </linearGradient>
  </defs>
</svg>
