<svg width="145" height="29" fill="none" xmlns="http://www.w3.org/2000/svg">
  <g clip-path="url(#a)">
    <path d="M14.292 12.256v5.407h6.864c-.883 2.626-3.05 4.657-6.864 4.657-4.897 0-7.426-3.94-7.426-7.879 0-3.94 2.53-7.873 7.426-7.873 2.489 0 4.375 1.032 5.62 2.582l5.7-3.74C23.083 2.071 19.07.04 14.292.04 5.942.041.002 6.21.002 14.441c0 8.276 5.94 14.438 14.29 14.438 4.054 0 7.025-1.467 9.032-3.972l.923 3.46h3.292v-16.11H14.292ZM38.818.521h-6.864v27.846h6.864V.52ZM67.318.521 59.09 14.005 50.861.521h-7.226v27.845H50.5V11.815l7.346 11.978h2.53l7.305-11.978v16.551h6.904V.521h-7.266Z" fill="#fff"/>
    <path d="m91.644.521-8.229 13.484L75.186.521h-7.225v27.845h6.864V11.815l7.346 11.978H84.7l7.306-11.978v16.551h6.904V.521h-7.266Z" fill="#fff"/>
    <path fill-rule="evenodd" clip-rule="evenodd" d="M130.754 21.96c.494.222 1.659.48 2.404.525.064.006.241.017.304.017 3.805.143 4.677-1.915 4.677-3.967 0-2.582-1.727-3.581-3.816-3.581-1.486 0-2.685.679-3.569 1.274l-5.221-1.191L127.26.003h15.532v6.444h-10.517l-.522 4.612a8.08 8.08 0 0 1 4.297-1.192c5.744 0 8.871 3.658 8.871 8.712 0 5.12-3.919 9.77-10.288 9.782v.005h-31.509V.521h17.301v6.444h-10.437v4.293h9.153v6.09h-9.153v4.613h20.766Z" fill="url(#b)"/>
  </g>
  <defs>
    <linearGradient id="b" x1="112.962" y1="6.325" x2="139.172" y2="9.712" gradientUnits="userSpaceOnUse">
      <stop stop-color="#fff"/>
      <stop offset=".5" stop-color="#0D9F56"/>
      <stop offset=".68" stop-color="#10CC6E"/>
      <stop offset="1" stop-color="#11D472"/>
    </linearGradient>
    <clipPath id="a">
      <path fill="#fff" d="M0 0h145v29H0z"/>
    </clipPath>
  </defs>
</svg>
